<svg width="400" height="138" viewBox="0 0 400 138" fill="none" xmlns="http://www.w3.org/2000/svg">
<path d="M24.5 132.5H5C2.23858 132.5 0 130.261 0 127.5V90.3167C0 88.8473 0.646374 87.4522 1.76739 86.5022L28.1011 64.1855C29.0043 63.4201 30.1498 63 31.3337 63H99C101.761 63 104 65.2386 104 68V83C104 85.7614 101.761 88 99 88H34.5C31.7386 88 29.5 90.2386 29.5 93V127.5C29.5 130.261 27.2614 132.5 24.5 132.5Z" fill="url(#paint0_linear)"/>
<path d="M99 0H12.5308C8.01312 0 5.81197 5.51644 9.08867 8.62653L28.053 26.6265C28.982 27.5084 30.2141 28 31.4951 28H99C101.761 28 104 25.7614 104 23V5C104 2.23858 101.761 0 99 0Z" fill="url(#paint1_linear)"/>
<path d="M150.21 0H131C128.239 0 126 2.23858 126 5V60.8431C126 62.2197 126.568 63.5354 127.569 64.4801L144.069 80.0461C147.258 83.055 152.5 80.7938 152.5 76.4092V58.5051C152.5 53.9258 158.145 51.7557 161.212 55.1556L229.511 130.85C230.459 131.9 231.808 132.5 233.223 132.5H239.5C242.261 132.5 244.5 130.261 244.5 127.5V5C244.5 2.23858 242.261 0 239.5 0H226.5C223.739 0 221.5 2.23858 221.5 5V66.5474C221.5 71.1818 215.741 73.3225 212.714 69.8131L153.996 1.73437C153.046 0.63314 151.664 0 150.21 0Z" fill="url(#paint2_linear)"/>
<path d="M147.5 132.5H138.407C133.906 132.5 131.697 127.018 134.94 123.897L144.033 115.147C147.21 112.091 152.5 114.342 152.5 118.75V127.5C152.5 130.261 150.261 132.5 147.5 132.5Z" fill="url(#paint3_linear)"/>
<path d="M300.5 132.5H288.449C283.757 132.5 281.649 126.619 285.273 123.639L297.324 113.726C300.586 111.042 305.5 113.363 305.5 117.587V127.5C305.5 130.261 303.261 132.5 300.5 132.5Z" fill="url(#paint4_linear)"/>
<path d="M274.5 5V60.6089C274.5 62.121 275.184 63.5518 276.361 64.501L297.361 81.4365C300.632 84.0741 305.5 81.7461 305.5 77.5444V58.9247C305.5 54.2937 311.252 52.1512 314.282 55.654L384.004 136.271C384.954 137.369 386.334 138 387.786 138H394.5C397.261 138 399.5 135.761 399.5 133V5C399.5 2.23858 397.261 0 394.5 0H379.5C376.739 0 374.5 2.23858 374.5 5V66.5474C374.5 71.1818 368.741 73.3225 365.714 69.8131L306.996 1.73437C306.046 0.63314 304.664 0 303.21 0H279.5C276.739 0 274.5 2.23858 274.5 5Z" fill="url(#paint5_linear)"/>
<defs>
<linearGradient id="paint0_linear" x1="-1.48825e-06" y1="69" x2="399" y2="69" gradientUnits="userSpaceOnUse">
<stop stop-color="#0F8CFF"/>
<stop offset="1" stop-color="#15E2B1"/>
</linearGradient>
<linearGradient id="paint1_linear" x1="-1.48825e-06" y1="69" x2="399" y2="69" gradientUnits="userSpaceOnUse">
<stop stop-color="#0F8CFF"/>
<stop offset="1" stop-color="#15E2B1"/>
</linearGradient>
<linearGradient id="paint2_linear" x1="-1.48825e-06" y1="69" x2="399" y2="69" gradientUnits="userSpaceOnUse">
<stop stop-color="#0F8CFF"/>
<stop offset="1" stop-color="#15E2B1"/>
</linearGradient>
<linearGradient id="paint3_linear" x1="-1.48825e-06" y1="69" x2="399" y2="69" gradientUnits="userSpaceOnUse">
<stop stop-color="#0F8CFF"/>
<stop offset="1" stop-color="#15E2B1"/>
</linearGradient>
<linearGradient id="paint4_linear" x1="-1.48825e-06" y1="69" x2="399" y2="69" gradientUnits="userSpaceOnUse">
<stop stop-color="#0F8CFF"/>
<stop offset="1" stop-color="#15E2B1"/>
</linearGradient>
<linearGradient id="paint5_linear" x1="-1.48825e-06" y1="69" x2="399" y2="69" gradientUnits="userSpaceOnUse">
<stop stop-color="#0F8CFF"/>
<stop offset="1" stop-color="#15E2B1"/>
</linearGradient>
</defs>
</svg>
