<svg width="404" height="185" viewBox="0 0 404 185" fill="none" xmlns="http://www.w3.org/2000/svg">
<path d="M24.5 132.5H5C2.23858 132.5 0 130.261 0 127.5V90.3167C0 88.8473 0.646374 87.4522 1.76739 86.5022L28.1011 64.1855C29.0043 63.4201 30.1498 63 31.3337 63H99C101.761 63 104 65.2386 104 68V83C104 85.7614 101.761 88 99 88H34.5C31.7386 88 29.5 90.2386 29.5 93V127.5C29.5 130.261 27.2614 132.5 24.5 132.5Z" fill="url(#paint0_linear)"/>
<path d="M99 0H12.5308C8.01312 0 5.81197 5.51644 9.08867 8.62653L28.053 26.6265C28.982 27.5084 30.2141 28 31.4951 28H99C101.761 28 104 25.7614 104 23V5C104 2.23858 101.761 0 99 0Z" fill="url(#paint1_linear)"/>
<path d="M150.21 0H131C128.239 0 126 2.23858 126 5V60.8431C126 62.2197 126.568 63.5354 127.569 64.4801L144.069 80.0461C147.258 83.055 152.5 80.7938 152.5 76.4092V58.5051C152.5 53.9258 158.145 51.7557 161.212 55.1556L229.511 130.85C230.459 131.9 231.808 132.5 233.223 132.5H239.5C242.261 132.5 244.5 130.261 244.5 127.5V5C244.5 2.23858 242.261 0 239.5 0H226.5C223.739 0 221.5 2.23858 221.5 5V66.5474C221.5 71.1818 215.741 73.3225 212.714 69.8131L153.996 1.73437C153.046 0.63314 151.664 0 150.21 0Z" fill="url(#paint2_linear)"/>
<path d="M147.5 132.5H138.407C133.906 132.5 131.697 127.018 134.94 123.897L144.033 115.147C147.21 112.091 152.5 114.342 152.5 118.75V127.5C152.5 130.261 150.261 132.5 147.5 132.5Z" fill="url(#paint3_linear)"/>
<path d="M300.5 132.5H288.449C283.757 132.5 281.649 126.619 285.273 123.639L297.324 113.726C300.586 111.042 305.5 113.363 305.5 117.587V127.5C305.5 130.261 303.261 132.5 300.5 132.5Z" fill="url(#paint4_linear)"/>
<path d="M274.5 5V60.6089C274.5 62.121 275.184 63.5518 276.361 64.501L297.361 81.4365C300.632 84.0741 305.5 81.7461 305.5 77.5444V58.9247C305.5 54.2937 311.252 52.1512 314.282 55.654L384.004 136.271C384.954 137.369 386.334 138 387.786 138H394.5C397.261 138 399.5 135.761 399.5 133V5C399.5 2.23858 397.261 0 394.5 0H379.5C376.739 0 374.5 2.23858 374.5 5V66.5474C374.5 71.1818 368.741 73.3225 365.714 69.8131L306.996 1.73437C306.046 0.63314 304.664 0 303.21 0H279.5C276.739 0 274.5 2.23858 274.5 5Z" fill="url(#paint5_linear)"/>
<path d="M24.2051 166.988H8.98975V183H4.2085V146.742H26.6704V150.677H8.98975V163.078H24.2051V166.988ZM48.186 173.537H32.9956L29.584 183H24.6533L38.499 146.742H42.6826L56.5532 183H51.6475L48.186 173.537ZM34.4399 169.603H46.7666L40.5908 152.644L34.4399 169.603ZM72.1172 166.838C68.0166 165.66 65.0283 164.215 63.1523 162.505C61.293 160.779 60.3633 158.654 60.3633 156.13C60.3633 153.275 61.5005 150.917 63.7749 149.058C66.0659 147.182 69.0376 146.244 72.6899 146.244C75.1802 146.244 77.3965 146.726 79.3389 147.688C81.2979 148.651 82.8086 149.979 83.8711 151.673C84.9502 153.366 85.4897 155.217 85.4897 157.226H80.6836C80.6836 155.035 79.9863 153.316 78.5918 152.071C77.1973 150.81 75.23 150.179 72.6899 150.179C70.3325 150.179 68.4897 150.702 67.1616 151.748C65.8501 152.777 65.1943 154.213 65.1943 156.056C65.1943 157.533 65.8169 158.787 67.062 159.816C68.3237 160.829 70.457 161.758 73.4619 162.605C76.4834 163.452 78.8408 164.39 80.5342 165.419C82.2441 166.432 83.5059 167.619 84.3193 168.98C85.1494 170.341 85.5645 171.943 85.5645 173.786C85.5645 176.725 84.4189 179.082 82.1279 180.858C79.8369 182.618 76.7739 183.498 72.939 183.498C70.4487 183.498 68.1245 183.025 65.9663 182.079C63.8081 181.116 62.1396 179.804 60.9609 178.144C59.7988 176.484 59.2178 174.6 59.2178 172.491H64.0239C64.0239 174.683 64.8291 176.417 66.4395 177.696C68.0664 178.958 70.2329 179.588 72.939 179.588C75.4624 179.588 77.3965 179.074 78.7412 178.044C80.0859 177.015 80.7583 175.612 80.7583 173.836C80.7583 172.06 80.1357 170.69 78.8906 169.727C77.6455 168.748 75.3877 167.785 72.1172 166.838ZM116.767 150.677H105.113V183H100.356V150.677H88.7271V146.742H116.767V150.677ZM161.666 183H156.86L138.606 155.06V183H133.8V146.742H138.606L156.91 174.807V146.742H161.666V183ZM190.652 166.241H174.939V179.09H193.192V183H170.158V146.742H192.943V150.677H174.939V162.331H190.652V166.241ZM206.963 171.57L207.661 176.351L208.682 172.043L215.854 146.742H219.888L226.885 172.043L227.881 176.426L228.653 171.545L234.281 146.742H239.087L230.297 183H225.939L218.468 156.579L217.896 153.814L217.323 156.579L209.578 183H205.22L196.455 146.742H201.236L206.963 171.57ZM255.1 166.838C250.999 165.66 248.011 164.215 246.135 162.505C244.275 160.779 243.346 158.654 243.346 156.13C243.346 153.275 244.483 150.917 246.757 149.058C249.048 147.182 252.02 146.244 255.672 146.244C258.163 146.244 260.379 146.726 262.321 147.688C264.28 148.651 265.791 149.979 266.854 151.673C267.933 153.366 268.472 155.217 268.472 157.226H263.666C263.666 155.035 262.969 153.316 261.574 152.071C260.18 150.81 258.212 150.179 255.672 150.179C253.315 150.179 251.472 150.702 250.144 151.748C248.833 152.777 248.177 154.213 248.177 156.056C248.177 157.533 248.799 158.787 250.044 159.816C251.306 160.829 253.439 161.758 256.444 162.605C259.466 163.452 261.823 164.39 263.517 165.419C265.227 166.432 266.488 167.619 267.302 168.98C268.132 170.341 268.547 171.943 268.547 173.786C268.547 176.725 267.401 179.082 265.11 180.858C262.819 182.618 259.756 183.498 255.921 183.498C253.431 183.498 251.107 183.025 248.949 182.079C246.791 181.116 245.122 179.804 243.943 178.144C242.781 176.484 242.2 174.6 242.2 172.491H247.006C247.006 174.683 247.812 176.417 249.422 177.696C251.049 178.958 253.215 179.588 255.921 179.588C258.445 179.588 260.379 179.074 261.724 178.044C263.068 177.015 263.741 175.612 263.741 173.836C263.741 172.06 263.118 170.69 261.873 169.727C260.628 168.748 258.37 167.785 255.1 166.838ZM315.214 183H310.408L292.154 155.06V183H287.348V146.742H292.154L310.458 174.807V146.742H315.214V183ZM351.596 166.042C351.596 169.594 350.999 172.699 349.803 175.355C348.608 177.995 346.915 180.012 344.723 181.406C342.532 182.801 339.975 183.498 337.053 183.498C334.198 183.498 331.666 182.801 329.458 181.406C327.25 179.995 325.532 177.995 324.303 175.405C323.091 172.798 322.469 169.785 322.436 166.365V163.75C322.436 160.264 323.042 157.185 324.253 154.512C325.465 151.839 327.175 149.797 329.383 148.386C331.608 146.958 334.148 146.244 337.003 146.244C339.909 146.244 342.465 146.95 344.673 148.361C346.898 149.755 348.608 151.789 349.803 154.462C350.999 157.118 351.596 160.214 351.596 163.75V166.042ZM346.84 163.701C346.84 159.401 345.977 156.105 344.25 153.814C342.523 151.507 340.108 150.353 337.003 150.353C333.982 150.353 331.6 151.507 329.856 153.814C328.13 156.105 327.242 159.293 327.192 163.377V166.042C327.192 170.208 328.063 173.487 329.807 175.878C331.566 178.252 333.982 179.439 337.053 179.439C340.141 179.439 342.532 178.318 344.225 176.077C345.918 173.819 346.79 170.59 346.84 166.39V163.701ZM366.587 171.57L367.285 176.351L368.306 172.043L375.478 146.742H379.512L386.509 172.043L387.505 176.426L388.277 171.545L393.905 146.742H398.711L389.921 183H385.563L378.092 156.579L377.52 153.814L376.947 156.579L369.202 183H364.844L356.079 146.742H360.86L366.587 171.57Z" fill="url(#paint6_linear)"/>
<defs>
<linearGradient id="paint0_linear" x1="-1.48825e-06" y1="69" x2="399" y2="69" gradientUnits="userSpaceOnUse">
<stop stop-color="#0F8CFF"/>
<stop offset="1" stop-color="#15E2B1"/>
</linearGradient>
<linearGradient id="paint1_linear" x1="-1.48825e-06" y1="69" x2="399" y2="69" gradientUnits="userSpaceOnUse">
<stop stop-color="#0F8CFF"/>
<stop offset="1" stop-color="#15E2B1"/>
</linearGradient>
<linearGradient id="paint2_linear" x1="-1.48825e-06" y1="69" x2="399" y2="69" gradientUnits="userSpaceOnUse">
<stop stop-color="#0F8CFF"/>
<stop offset="1" stop-color="#15E2B1"/>
</linearGradient>
<linearGradient id="paint3_linear" x1="-1.48825e-06" y1="69" x2="399" y2="69" gradientUnits="userSpaceOnUse">
<stop stop-color="#0F8CFF"/>
<stop offset="1" stop-color="#15E2B1"/>
</linearGradient>
<linearGradient id="paint4_linear" x1="-1.48825e-06" y1="69" x2="399" y2="69" gradientUnits="userSpaceOnUse">
<stop stop-color="#0F8CFF"/>
<stop offset="1" stop-color="#15E2B1"/>
</linearGradient>
<linearGradient id="paint5_linear" x1="-1.48825e-06" y1="69" x2="399" y2="69" gradientUnits="userSpaceOnUse">
<stop stop-color="#0F8CFF"/>
<stop offset="1" stop-color="#15E2B1"/>
</linearGradient>
<linearGradient id="paint6_linear" x1="-3.78975e-07" y1="166" x2="404" y2="166" gradientUnits="userSpaceOnUse">
<stop stop-color="#0F8CFF"/>
<stop offset="1" stop-color="#15E2B1"/>
</linearGradient>
</defs>
</svg>
